<?xml version="1.0" standalone="no"?>
<!DOCTYPE svg PUBLIC "-//W3C//DTD SVG 20010904//EN"
 "http://www.w3.org/TR/2001/REC-SVG-20010904/DTD/svg10.dtd">
<svg version="1.0" xmlns="http://www.w3.org/2000/svg"
 width="900.000000pt" height="900.000000pt" viewBox="0 0 900.000000 900.000000"
 preserveAspectRatio="xMidYMid meet">
<g transform="translate(0.000000,900.000000) scale(0.100000,-0.100000)"
fill="#000000" stroke="none">
<path d="M0 4500 l0 -4500 4500 0 4500 0 0 4500 0 4500 -4500 0 -4500 0 0
-4500z m5745 1849 c1189 -59 1994 -468 2177 -1104 32 -113 32 -332 0 -452 -70
-259 -199 -468 -437 -709 -124 -125 -324 -296 -380 -326 -11 -6 -18 -8 -15 -5
3 3 46 50 97 104 309 331 460 589 524 898 7 33 13 116 12 185 0 140 -28 267
-82 382 -288 609 -1244 989 -2486 988 -181 0 -489 -13 -585 -25 -29 -4 -40 -2
-30 4 30 18 386 51 700 64 162 7 312 6 505 -4z m-333 -971 l3 -273 108 -3 107
-3 0 -159 0 -159 -107 -3 -108 -3 -3 -582 -2 -583 -185 0 -185 0 0 585 0 585
-95 0 -96 0 3 158 3 157 93 3 92 3 0 274 0 275 185 0 185 0 2 -272z m-3613
-185 c-160 -167 -260 -291 -346 -429 -264 -422 -292 -817 -81 -1163 393 -647
1594 -992 3013 -866 99 9 40 -11 -70 -23 -729 -83 -1395 -58 -1940 73 -566
135 -968 367 -1199 691 -52 74 -122 227 -143 314 -22 94 -25 315 -4 410 52
238 199 486 431 724 113 116 381 346 404 346 5 0 -24 -35 -65 -77z m2557 -84
c37 -12 92 -35 123 -52 60 -34 181 -142 181 -162 0 -7 -50 -63 -110 -124
l-111 -112 -47 38 c-69 57 -95 72 -155 87 -129 34 -231 -45 -167 -127 11 -14
85 -58 163 -98 268 -135 359 -209 421 -339 29 -61 31 -71 31 -185 0 -114 -2
-123 -32 -188 -82 -173 -257 -269 -493 -269 -147 0 -253 30 -360 101 -57 39
-150 130 -150 148 0 8 50 68 112 134 88 96 113 118 120 105 13 -24 117 -100
173 -126 59 -28 149 -37 199 -20 45 15 86 63 86 101 0 73 -51 117 -253 219
-197 99 -304 195 -358 320 -20 46 -24 71 -24 160 0 96 3 110 29 160 60 115
136 181 261 225 95 33 260 35 361 4z m-1858 -56 c11 -27 64 -154 117 -283 54
-129 126 -302 161 -385 34 -82 68 -163 74 -179 6 -17 14 -25 19 -20 5 5 45 90
89 189 45 99 137 302 205 450 l123 270 184 3 c101 1 187 -1 191 -5 4 -5 -35
-98 -86 -208 -51 -110 -204 -443 -340 -740 -136 -297 -276 -601 -310 -675 -35
-74 -90 -193 -123 -265 l-59 -130 -192 -3 c-105 -1 -191 0 -191 3 0 6 80 182
119 263 17 34 31 64 31 66 0 2 32 70 71 152 39 82 71 158 71 169 0 11 -15 54
-32 95 -40 95 -159 383 -215 520 -40 98 -73 179 -239 584 -35 88 -63 163 -60
168 3 4 88 8 188 8 l184 0 20 -47z m3729 -108 c34 -82 74 -175 88 -205 13 -30
66 -152 116 -270 50 -118 94 -221 98 -228 5 -8 55 99 126 265 65 153 149 348
185 433 l67 155 186 3 c117 1 187 -1 187 -7 0 -6 -115 -281 -256 -613 -141
-332 -281 -663 -311 -735 l-55 -133 -122 0 -122 0 -116 273 c-64 149 -190 443
-278 652 -89 209 -177 415 -196 458 -19 43 -34 85 -34 93 0 12 28 14 186 12
l187 -3 64 -150z"/>
</g>
</svg>
